<?xml version="1.0" encoding="utf-8"?>
<!-- Generator: Adobe Illustrator 21.0.1, SVG Export Plug-In . SVG Version: 6.00 Build 0)  -->
<svg version="1.1" id="Layer_1" xmlns="http://www.w3.org/2000/svg" xmlns:xlink="http://www.w3.org/1999/xlink" x="0px" y="0px"
	 viewBox="0 0 167 167" style="enable-background:new 0 0 167 167;" xml:space="preserve">
<style type="text/css">
	.st0{fill:#2B3E51;}
	.st1{fill:#ECF0F1;}
	.st2{fill:#BDC3C7;}
	.st3{fill:#E94B35;}
	.st4{fill:#F4CC20;}
	.st5{fill:#00BD9C;}
</style>
<g id="Others">
</g>
<g id="Design">
</g>
<g id="SEO_x2F__Web">
</g>
<g id="Finance__x2F__Money">
</g>
<g id="E-Commerce__x2F__Shopping">
</g>
<g id="Strategy">
	<g id="graph_paper">
		<circle class="st0" cx="84" cy="83.5" r="77"/>
		<path class="st1" d="M110.5,45.6V28.7c-0.8-0.4-1.7-0.6-2.4-0.6h-59c-1.3,0-2.4,1.1-2.4,2.4v101.7c0,1.3,1.1,2.4,2.4,2.4h76.4
			c1.3,0,2.4-1.1,2.4-2.4V48c0-0.7-0.2-1.6-0.6-2.4H110.5z"/>
		<path class="st2" d="M127.4,45.6c-0.3-0.7-0.7-1.3-1.1-1.7l-7-7l-7-7c-0.4-0.4-1-0.8-1.7-1.1v16.9H127.4z"/>
		<rect x="60" y="55.5" class="st3" width="11.4" height="25.9"/>
		<rect x="74.4" y="60.9" class="st4" width="11.4" height="20.5"/>
		<rect x="88.8" y="66" class="st0" width="11.4" height="15.3"/>
		<rect x="103.3" y="47.1" class="st5" width="11.4" height="34.3"/>
		<rect x="60" y="85.3" class="st2" width="54.8" height="3.6"/>
		<g>
			<path class="st4" d="M85.6,99.9c-2.7-2.4-6.3-3.8-10.2-3.8c-0.1,0-0.1,0-0.2,0v16.2L85.6,99.9z"/>
			<path class="st5" d="M75.3,96.1c-8.5,0.1-15.3,7-15.3,15.5c0,4.9,2.3,9.3,5.8,12.1l9.5-11.4V96.1z"/>
			<path class="st3" d="M85.6,99.9l-10.3,12.4v14.8c0.1,0,0.1,0,0.2,0c8.6,0,15.5-6.9,15.5-15.5C90.9,107,88.9,102.8,85.6,99.9z"/>
			<path class="st0" d="M65.8,123.7c2.6,2.1,5.9,3.3,9.5,3.4v-14.8L65.8,123.7z"/>
		</g>
		<g>
			<circle class="st4" cx="99.7" cy="102.6" r="2.4"/>
			<circle class="st5" cx="99.7" cy="108.6" r="2.4"/>
			<circle class="st0" cx="99.7" cy="114.6" r="2.4"/>
			<circle class="st3" cx="99.7" cy="120.6" r="2.4"/>
		</g>
		<g>
			<path class="st2" d="M118.9,103h-13.5c-0.4,0-0.8-0.3-0.8-0.8c0-0.4,0.3-0.8,0.8-0.8h13.5c0.4,0,0.8,0.3,0.8,0.8
				C119.7,102.7,119.3,103,118.9,103z"/>
		</g>
		<g>
			<path class="st2" d="M116.5,109.1h-11.1c-0.4,0-0.8-0.3-0.8-0.8c0-0.4,0.3-0.8,0.8-0.8h11.1c0.4,0,0.8,0.3,0.8,0.8
				C117.3,108.7,116.9,109.1,116.5,109.1z"/>
		</g>
		<g>
			<path class="st2" d="M116.5,115.1h-11.1c-0.4,0-0.8-0.3-0.8-0.8c0-0.4,0.3-0.8,0.8-0.8h11.1c0.4,0,0.8,0.3,0.8,0.8
				C117.3,114.7,116.9,115.1,116.5,115.1z"/>
		</g>
		<g>
			<path class="st2" d="M118,121.1h-13.2c-0.4,0-0.8-0.3-0.8-0.8c0-0.4,0.3-0.8,0.8-0.8H118c0.4,0,0.8,0.3,0.8,0.8
				C118.8,120.8,118.4,121.1,118,121.1z"/>
		</g>
		<rect x="51.5" y="32" class="st2" width="20.8" height="5.1"/>
		<g>
			<path class="st2" d="M99.7,32.6H75.3c-0.4,0-0.8-0.3-0.8-0.8c0-0.4,0.3-0.8,0.8-0.8h24.4c0.4,0,0.8,0.3,0.8,0.8
				C100.4,32.3,100.1,32.6,99.7,32.6z"/>
		</g>
		<g>
			<path class="st2" d="M94.6,35.3H75.3c-0.4,0-0.8-0.3-0.8-0.8c0-0.4,0.3-0.8,0.8-0.8h19.3c0.4,0,0.8,0.3,0.8,0.8
				C95.3,35,95,35.3,94.6,35.3z"/>
		</g>
		<g>
			<path class="st2" d="M102.1,37.7H75.3c-0.4,0-0.8-0.3-0.8-0.8c0-0.4,0.3-0.8,0.8-0.8h26.8c0.4,0,0.8,0.3,0.8,0.8
				C102.8,37.4,102.5,37.7,102.1,37.7z"/>
		</g>
		<rect x="51.5" y="41.4" class="st0" width="51.8" height="3.6"/>
	</g>
</g>
</svg>
