<svg xmlns="http://www.w3.org/2000/svg" viewBox="0 0 873.3 233.19"><defs><style>.cls-1{font-size:134.51px;letter-spacing:0.06em;}.cls-1,.cls-5,.cls-7{fill:#fff;}.cls-1,.cls-5{font-family:SourceSansPro-Regular, Source Sans Pro;}.cls-2{letter-spacing:0.04em;}.cls-3{letter-spacing:0.06em;}.cls-4{letter-spacing:0.06em;}.cls-5{font-size:44px;letter-spacing:0.25em;}.cls-6{letter-spacing:0.21em;}.cls-8{fill:#e8e8e8;}.cls-9{fill:#2cb6e9;}.cls-10{fill:#1798d5;}</style></defs><title>Asset 3</title><g id="Layer_2" data-name="Layer 2"><g id="Layer_1-2" data-name="Layer 1"><text class="cls-1" transform="translate(303.11 161.06)">Da<tspan class="cls-2" x="167.33" y="0">t</tspan><tspan class="cls-3" x="218.45" y="0">afl</tspan><tspan class="cls-4" x="385.1" y="0">o</tspan><tspan class="cls-3" x="465.54" y="0">w</tspan></text><text class="cls-5" transform="translate(422.92 218.98)">INTERN<tspan class="cls-6" x="205.52" y="0">A</tspan><tspan x="238.43" y="0">TIONAL</tspan></text><polygon class="cls-7" points="52.65 8.04 52.65 8 29.39 8 29.39 31.27 29.43 31.27 52.65 8.04"/><polygon class="cls-7" points="29.43 31.27 52.65 31.27 52.65 8.04 29.43 31.27"/><polygon class="cls-7" points="86.51 12.05 86.51 12.01 63.01 12.01 63.01 35.55 86.51 12.05"/><polygon class="cls-7" points="86.51 12.05 63.01 35.55 86.51 35.55 86.51 12.05"/><polygon class="cls-8" points="122.03 12.06 122.03 12.01 92.57 12.01 92.57 41.52 122.03 12.06"/><polygon class="cls-7" points="122.03 12.06 92.57 41.52 122.03 41.52 122.03 12.06"/><path class="cls-8" d="M150.71,12.93c-1.29-.17-2.58-.33-3.88-.45V12h-24.7V41.52Z"/><path class="cls-7" d="M122.13,41.52h29.56V13l-1-.11L122.13,41.52Z"/><polygon class="cls-7" points="23.28 35.28 0 35.28 0 58.52 0.04 58.52 23.28 35.28"/><polygon class="cls-7" points="0.04 58.52 23.28 58.52 23.28 35.28 0.04 58.52"/><polygon class="cls-8" points="92.57 71.08 122.03 41.62 122.03 41.62 92.57 41.62 92.57 71.08 92.57 71.08"/><polygon class="cls-7" points="122.03 41.62 92.57 71.08 122.03 71.08 122.03 41.62"/><polygon class="cls-8" points="151.58 41.62 122.13 41.62 122.13 71.08 151.58 41.62"/><polygon class="cls-7" points="151.69 71.08 151.69 41.62 151.58 41.62 122.13 71.08 151.69 71.08"/><polygon class="cls-9" points="62.91 71.18 62.91 71.18 62.91 71.18 62.91 71.18"/><polygon class="cls-8" points="63.01 71.18 63.01 100.64 92.47 71.18 63.01 71.18"/><polygon class="cls-7" points="92.47 71.18 92.47 71.18 63.01 100.64 92.47 100.64 92.47 71.18"/><polygon class="cls-8" points="92.57 71.18 92.57 100.64 122.03 71.18 92.57 71.18"/><polygon class="cls-7" points="122.03 71.18 92.57 100.64 122.03 100.64 122.03 71.18"/><polygon class="cls-8" points="122.13 100.64 151.58 71.18 122.13 71.18 122.13 100.64"/><polygon class="cls-7" points="122.13 100.64 122.13 100.64 151.69 100.64 151.69 71.18 151.58 71.18 122.13 100.64"/><polygon class="cls-8" points="62.91 100.74 33.4 100.74 33.4 130.19 33.45 130.19 62.91 100.74"/><polygon class="cls-7" points="33.45 130.19 62.91 130.19 62.91 100.74 33.45 130.19"/><polygon class="cls-8" points="92.47 100.74 63.01 100.74 63.01 130.19 63.01 130.19 92.47 100.74"/><polygon class="cls-7" points="63.01 130.19 92.47 130.19 92.47 100.74 63.01 130.19"/><polygon class="cls-8" points="122.03 100.74 122.03 100.74 92.57 100.74 92.57 130.19 92.57 130.19 122.03 100.74"/><polygon class="cls-7" points="92.57 130.19 122.03 130.19 122.03 100.74 92.57 130.19"/><polygon class="cls-8" points="151.58 100.74 122.13 100.74 122.13 130.19 151.58 100.74"/><polygon class="cls-7" points="122.13 130.19 151.69 130.19 151.69 100.74 151.58 100.74 122.13 130.19"/><polygon class="cls-8" points="62.91 130.3 33.4 130.3 33.4 159.75 33.45 159.75 62.91 130.3"/><polygon class="cls-7" points="62.91 130.3 33.45 159.75 62.91 159.75 62.91 130.3 62.91 130.3"/><polygon class="cls-8" points="63.01 130.3 63.01 159.75 92.47 130.3 63.01 130.3"/><polygon class="cls-7" points="92.47 130.3 92.47 130.3 63.01 159.75 92.47 159.75 92.47 130.3"/><polygon class="cls-8" points="92.57 130.3 92.57 159.75 122.03 130.3 92.57 130.3"/><polygon class="cls-7" points="92.57 159.75 122.03 159.75 122.03 130.3 92.57 159.75"/><polygon class="cls-8" points="151.58 130.3 122.13 130.3 122.13 159.75 151.58 130.3"/><polygon class="cls-7" points="122.13 159.75 122.13 159.75 151.69 159.75 151.69 130.3 151.58 130.3 122.13 159.75"/><polygon class="cls-8" points="62.91 159.86 33.4 159.86 33.4 189.31 33.45 189.31 62.91 159.86"/><polygon class="cls-7" points="33.45 189.31 62.91 189.31 62.91 159.86 33.45 189.31"/><polygon class="cls-8" points="63.01 159.86 63.01 189.31 63.01 189.31 92.47 159.86 63.01 159.86"/><polygon class="cls-7" points="63.01 189.31 92.47 189.31 92.47 159.86 63.01 189.31"/><polygon class="cls-8" points="122.03 159.86 92.57 159.86 92.57 189.31 92.57 189.31 122.03 159.86 122.03 159.86"/><polygon class="cls-7" points="92.57 189.31 122.03 189.31 122.03 159.86 92.57 189.31"/><polygon class="cls-8" points="122.13 159.86 122.13 189.31 151.58 159.86 122.13 159.86"/><polygon class="cls-7" points="151.58 159.86 122.13 189.31 151.69 189.31 151.69 159.86 151.58 159.86"/><polygon class="cls-8" points="151.79 71.08 181.25 41.62 151.69 41.62 151.69 71.08 151.79 71.08"/><polygon class="cls-7" points="151.79 71.08 181.35 71.08 181.35 41.62 181.25 41.62 151.79 71.08"/><path class="cls-8" d="M151.79,41.52l22.57-22.57A102.76,102.76,0,0,0,151.69,13V41.52Z"/><path class="cls-7" d="M181.35,41.52V22c-2.29-1.08-4.61-2.1-7-3L151.79,41.52Z"/><polygon class="cls-8" points="151.79 100.64 181.25 71.18 151.69 71.18 151.69 100.64 151.79 100.64"/><polygon class="cls-7" points="151.79 100.64 181.35 100.64 181.35 71.18 181.25 71.18 151.79 100.64"/><polygon class="cls-8" points="151.69 130.19 151.79 130.19 181.25 100.74 151.69 100.74 151.69 130.19"/><polygon class="cls-7" points="151.79 130.19 181.35 130.19 181.35 100.74 181.25 100.74 151.79 130.19"/><polygon class="cls-8" points="151.69 159.75 151.79 159.75 181.25 130.3 151.69 130.3 151.69 159.75"/><polygon class="cls-7" points="151.79 159.75 181.35 159.75 181.35 130.3 181.25 130.3 151.79 159.75"/><polygon class="cls-8" points="181.46 100.64 210.91 71.18 181.35 71.18 181.35 100.64 181.46 100.64"/><polygon class="cls-7" points="181.46 100.64 211.01 100.64 211.01 71.18 210.91 71.18 181.46 100.64"/><path class="cls-8" d="M181.35,71.08h.1l28.78-28.78-.7-.67H181.35Z"/><path class="cls-7" d="M181.45,71.08H211v-28c-.26-.27-.51-.54-.78-.81Z"/><path class="cls-8" d="M181.45,41.52,193.93,29A103.27,103.27,0,0,0,181.35,22V41.52Z"/><path class="cls-7" d="M209.43,41.52A103.9,103.9,0,0,0,193.93,29L181.45,41.52Z"/><path class="cls-8" d="M211,71.08h.1l12.43-12.43A103.88,103.88,0,0,0,211,43.1Z"/><path class="cls-7" d="M230.56,71.08a103.22,103.22,0,0,0-7-12.43L211.12,71.08Z"/><polygon class="cls-8" points="181.46 130.19 210.91 100.74 181.35 100.74 181.35 130.19 181.46 130.19"/><polygon class="cls-7" points="181.46 130.19 211.01 130.19 211.01 100.74 210.91 100.74 181.46 130.19"/><path class="cls-8" d="M211,100.64h.1l22.5-22.5c-.92-2.36-1.92-4.68-3-7H211Z"/><path class="cls-7" d="M239.52,100.64a102.67,102.67,0,0,0-5.9-22.5l-22.5,22.5Z"/><path class="cls-8" d="M211,130.2h.1l28.52-28.52c0-.31-.07-.62-.11-.93H211Z"/><path class="cls-7" d="M239.51,130.2a102.63,102.63,0,0,0,.13-28.52L211.12,130.2Z"/><path class="cls-8" d="M211,159.75h.1l28.21-28.21c.06-.41.12-.83.18-1.25H211Z"/><path class="cls-7" d="M230.63,159.75a102.69,102.69,0,0,0,8.7-28.21l-28.21,28.21Z"/><polygon class="cls-8" points="181.46 159.75 210.91 130.3 181.35 130.3 181.35 159.75 181.46 159.75"/><polygon class="cls-7" points="181.46 159.75 211.01 159.75 211.01 130.3 210.91 130.3 181.46 159.75"/><polygon class="cls-8" points="181.35 189.37 181.4 189.37 210.91 159.86 181.35 159.86 181.35 189.37"/><path class="cls-7" d="M210.91,159.86,181.4,189.37h28.09q.77-.75,1.52-1.52v-28Z"/><path class="cls-8" d="M211,187.85a103.67,103.67,0,0,0,19.57-28H211Z"/><polygon class="cls-8" points="151.69 159.86 151.69 189.31 151.69 189.37 151.74 189.37 181.25 159.86 151.69 159.86"/><polygon class="cls-7" points="151.74 189.37 181.35 189.37 181.35 159.86 181.25 159.86 151.74 189.37"/><path class="cls-8" d="M151.69,189.42v28.47l1.32-.17,28.29-28.29Z"/><path class="cls-7" d="M181.3,189.42,153,217.71A102.69,102.69,0,0,0,181.35,209V189.42Z"/><path class="cls-8" d="M181.35,209a103.66,103.66,0,0,0,28.09-19.59H181.35Z"/><polygon class="cls-8" points="33.4 189.42 33.4 218.45 33.88 218.45 62.91 189.42 33.4 189.42"/><polygon class="cls-7" points="62.91 189.42 33.88 218.45 62.91 218.45 62.91 189.42 62.91 189.42"/><polygon class="cls-8" points="63.01 189.42 63.01 218.45 63.44 218.45 92.47 189.42 63.01 189.42"/><polygon class="cls-10" points="63.01 189.31 63.01 189.31 63.01 189.31 63.01 189.31"/><polygon class="cls-7" points="92.47 189.42 63.44 218.45 92.47 218.45 92.47 189.42 92.47 189.42"/><polygon class="cls-8" points="92.57 189.42 92.57 218.45 93 218.45 122.03 189.42 92.57 189.42"/><polygon class="cls-7" points="93 218.45 122.03 218.45 122.03 189.42 93 218.45"/><polygon class="cls-8" points="122.13 189.42 122.13 218.45 122.56 218.45 151.58 189.42 122.13 189.42"/><path class="cls-7" d="M151.58,189.42l-29,29h14.56v.48a104.23,104.23,0,0,0,14.57-1V189.42Z"/><polygon class="cls-7" points="18.62 0.03 18.62 0 0.01 0 0.01 18.61 0.04 18.61 18.62 0.03"/><polygon class="cls-7" points="0.04 18.61 18.62 18.61 18.62 0.03 0.04 18.61"/><polygon class="cls-7" points="27.32 62.96 27.32 62.93 11.66 62.93 11.66 78.59 11.69 78.59 27.32 62.96"/><polygon class="cls-7" points="11.69 78.59 27.32 78.59 27.32 62.96 11.69 78.59"/><polygon class="cls-7" points="56.68 41.62 33.4 41.62 33.4 64.86 33.44 64.86 56.68 41.62"/><polygon class="cls-7" points="33.44 64.86 56.68 64.86 56.68 41.62 33.44 64.86"/><polygon class="cls-8" points="62.91 71.18 33.4 71.18 33.4 100.64 33.45 100.64 62.91 71.18"/><polygon class="cls-7" points="62.91 71.18 33.45 100.64 62.91 100.64 62.91 71.18 62.91 71.18"/><polygon class="cls-8" points="92.47 41.62 63.01 41.62 63.01 71.08 63.01 71.08 92.47 41.62"/><polygon class="cls-7" points="92.47 71.08 92.47 41.62 63.01 71.08 92.47 71.08"/></g></g></svg>