<?xml version="1.0" encoding="utf-8"?>
<!-- Generator: Adobe Illustrator 21.0.1, SVG Export Plug-In . SVG Version: 6.00 Build 0)  -->
<svg version="1.1" id="Layer_1" xmlns="http://www.w3.org/2000/svg" xmlns:xlink="http://www.w3.org/1999/xlink" x="0px" y="0px"
	 viewBox="0 0 176 176" style="enable-background:new 0 0 176 176;" xml:space="preserve">
<style type="text/css">
	.st0{fill:#FFCA4F;}
	.st1{fill:#FF5B61;}
	.st2{fill:#20D0C2;}
	.st3{fill:#1A91A1;}
	.st4{fill:#FFFFFF;}
	.st5{fill:#ECF0F1;}
	.st6{fill:#FFBA1B;}
	.st7{fill:#F5A209;}
	.st8{fill:#666666;}
	.st9{fill:#807D7D;}
</style>
<g>
	<path class="st0" d="M88.8,163.9c42.2,0,76.7-34.4,76.7-76.7S131,10.6,88.8,10.6c-42.2,0-76.7,34.4-76.7,76.7
		S46.6,163.9,88.8,163.9z"/>
	<path class="st1" d="M35.8,77.4L33.7,91c0,0.2,0.7,0.5,1.1,0.1c0.5,0.6,1.1,0.3,1.3-0.1c0.2,0.4,0.8,0.6,1.2,0
		c0.4,0.4,1.2,0.1,1.1-0.2l-2.1-13.4C36.1,77.2,35.8,77.3,35.8,77.4L35.8,77.4z"/>
	<g>
		<path class="st2" d="M74.8,59.3H127l11.9,52.3l-4.3,0l-0.1,18.5l4.5,0l0,3.1H68.2c-6.7-0.5-6.1-12.4-6.4-15.6l6-53.2
			C67.8,62.1,70.2,59.3,74.8,59.3L74.8,59.3z"/>
		<path class="st3" d="M74.8,59.3h5l-4.6,73.9h-7c-8.2-0.9-8.5-14-5.8-21l5.3-47.8C67.8,62.1,70.2,59.3,74.8,59.3L74.8,59.3z"/>
		<path class="st4" d="M69.2,111.6h68.4c-3.1,6.3-3,12.6,0,18.8H69.2C61.8,130.3,61.8,111.6,69.2,111.6z"/>
		<path class="st5" d="M64.2,116.7h71.5c0,0.2-0.1,0.4-0.1,0.6H64C64.1,117.1,64.1,116.9,64.2,116.7z M135.4,118.7L135.4,118.7
			c0,0.2,0,0.4-0.1,0.6H63.7c0-0.2,0-0.4,0.1-0.6H135.4z M135.2,120.7L135.2,120.7c0,0.2,0,0.4,0,0.6H63.7c0-0.2,0-0.4,0-0.6H135.2z
			 M135.3,122.7L135.3,122.7c0,0.2,0,0.4,0.1,0.6H63.8c0-0.2,0-0.4-0.1-0.6H135.3z M135.6,124.6L135.6,124.6c0,0.2,0.1,0.4,0.1,0.6
			H64.2c0-0.2-0.1-0.4-0.1-0.6H135.6L135.6,124.6z M136,126.6L136,126.6c0.1,0.2,0.1,0.4,0.2,0.6H64.9c-0.1-0.2-0.2-0.4-0.3-0.6H136
			L136,126.6z M136.7,128.6L136.7,128.6c0.1,0.2,0.2,0.4,0.2,0.6H66.3c-0.2-0.2-0.3-0.4-0.5-0.6H136.7L136.7,128.6z"/>
		<path class="st4" d="M56.9,92.4l72.4-25.9c8.1-0.7,10.5,15.8,5.2,17.4l-70.8,26.6c-4,1.5-7.9-4.9-8.3-11.3
			c-0.2-3.4,0.7-3.3,4.6-4.8L56.9,92.4L56.9,92.4L56.9,92.4z"/>
		<path class="st5" d="M136.9,81.4c-0.5,1.2-1.2,2.2-2.3,2.5l-70.8,26.6c-1.2,0.5-2.5,0.2-3.6-0.6c2,0.2,3.1-0.1,5-1.9L136.9,81.4z"
			/>
		<path class="st6" d="M104.5,75.4c5.4,0.8,9.2,13.5,6.5,17.3l-9.8,3.7c1.8-6-2.1-16-7.5-17.2L104.5,75.4z"/>
		<path class="st7" d="M121.8,101.3L111,92.8l-9.8,3.7l8.2,9.5l3.8-5.6L121.8,101.3z"/>
		<g>
			<path class="st5" d="M59.6,94.6l0.5-0.2c3,0.6,8.1,11.2,2.5,13.5c-4,1.7-5.9-7.1-5.8-10c1.7-1.2,3.6,4,3,4.1l-1.2,0.2
				c0,0,0,2.3,1.2,2.5l4.6-1.5C64.4,103.3,64,96.5,59.6,94.6L59.6,94.6z"/>
			<path class="st5" d="M76.3,115.5h55.1h3.1h1.5c0.4-1.3,0.9-2.6,1.5-3.9c0,0,0,0,0,0h-4.9H76.5h-7.4c-6.8,0-7.3,16.1-1.5,18.5
				c-2-5.5-0.4-14.5,4.7-14.5L76.3,115.5L76.3,115.5L76.3,115.5z"/>
		</g>
		<path class="st8" d="M99.1,57l0.6,10.3c-3.3,5.7-14,9.9-24.5,9.8c-10-0.1-19.9-4.3-22.6-9.5l-0.1-10.1l22.4,6.2L99.1,57L99.1,57
			L99.1,57z"/>
		<path class="st9" d="M38.7,53.5l36.1-12.2L111,53.5L74.9,65.7L38.7,53.5z"/>
		<g>
			<path class="st4" d="M75.1,50.4c0.2-0.1,0.4,0.1,0.5,0.3c0.1,0.2-0.1,0.4-0.3,0.5l-23.2,7v20.3c0,0.2-0.2,0.4-0.4,0.4
				s-0.4-0.2-0.4-0.4V57.8l0,0c0-0.2,0.1-0.3,0.3-0.4L75.1,50.4L75.1,50.4L75.1,50.4z"/>
			<path class="st4" d="M51.7,79.8c0.9,0,1.6-0.7,1.6-1.6s-0.7-1.6-1.6-1.6c-0.9,0-1.6,0.7-1.6,1.6C50.1,79.1,50.8,79.8,51.7,79.8z"
				/>
		</g>
	</g>
	<path class="st5" d="M37.7,76.5c0,0.9-0.6,1.6-1.3,1.9c-0.2,0.1-0.4,0.1-0.7,0.1c0,0,0,0,0,0c-0.7,0-1.3-0.4-1.7-0.9
		c0.2,0.7,0.8,1.3,1.6,1.5c0.1,0,0.3,0,0.5,0c0.2,0,0.3,0,0.5-0.1c0.9-0.2,1.6-1,1.6-2c0-0.6-0.3-1.1-0.7-1.5
		C37.6,75.8,37.7,76.2,37.7,76.5L37.7,76.5z"/>
</g>
</svg>
