<?xml version="1.0" encoding="utf-8"?>
<!-- Generator: Adobe Illustrator 21.0.1, SVG Export Plug-In . SVG Version: 6.00 Build 0)  -->
<svg version="1.1" id="Capa_1" xmlns="http://www.w3.org/2000/svg" xmlns:xlink="http://www.w3.org/1999/xlink" x="0px" y="0px"
	 viewBox="0 0 168 168" style="enable-background:new 0 0 168 168;" xml:space="preserve">
<style type="text/css">
	.st0{fill:#ECF0F1;}
	.st1{fill:#363E4B;}
	.st2{fill:#556080;}
	.st3{fill:#2C4055;}
	.st4{fill:#2BDA72;}
	.st5{fill:#F7E6A1;}
	.st6{fill:#E4C05C;}
	.st7{fill:#212F3F;}
	.st8{fill:#ED7161;}
	.st9{fill:#FFFFFF;}
</style>
<circle class="st0" cx="84.3" cy="84.3" r="77.3"/>
<g>
	<rect x="38.7" y="100" class="st1" width="91.1" height="22"/>
	<rect x="38.7" y="40.3" class="st2" width="91.1" height="59.7"/>
	<path class="st3" d="M126.7,43.5v53.4H41.9V43.5H126.7 M129.9,40.3H38.7V100h91.1V40.3L129.9,40.3z"/>
	<path class="st4" d="M78,95.3C78,95.3,77.9,95.3,78,95.3c-0.7,0-1.2-0.4-1.5-1l-8.1-20.1l-6.3,13.9c-0.3,0.6-0.8,0.9-1.4,0.9H48.2
		c-0.9,0-1.6-0.7-1.6-1.6s0.7-1.6,1.6-1.6h11.6l7.4-16.4c0.3-0.6,0.8-0.9,1.5-0.9c0.6,0,1.2,0.4,1.4,1l8.2,20.5l6.3-11.3
		c0.3-0.5,0.8-0.8,1.3-0.8c0.5,0,1.1,0.3,1.4,0.8l2.7,4.5l5.5-26c0.2-0.7,0.8-1.2,1.5-1.2c0,0,0,0,0,0c0.8,0,1.4,0.6,1.5,1.3
		l4.5,28.5h17.5c0.9,0,1.6,0.7,1.6,1.6s-0.7,1.6-1.6,1.6h-18.9c-0.8,0-1.4-0.6-1.6-1.3l-3.4-21.4l-4.5,21.6
		c-0.1,0.6-0.6,1.1-1.3,1.2c-0.6,0.1-1.3-0.2-1.6-0.7l-3.3-5.6l-6.5,11.8C79.1,95,78.6,95.3,78,95.3z"/>
	<rect x="95.3" y="104.7" class="st2" width="22" height="12.6"/>
	<rect x="95.3" y="104.7" class="st5" width="7.9" height="12.6"/>
	<path class="st6" d="M54.4,111c0-0.9,0.7-1.6,1.6-1.6h6.1c-0.7-2.7-3.1-4.7-6.1-4.7c-3.5,0-6.3,2.8-6.3,6.3s2.8,6.3,6.3,6.3
		c2.9,0,5.4-2,6.1-4.7H56C55.2,112.6,54.4,111.9,54.4,111z"/>
	<path class="st5" d="M62.1,109.4H56c-0.9,0-1.6,0.7-1.6,1.6c0,0.9,0.7,1.6,1.6,1.6h6.1c0.1-0.5,0.2-1,0.2-1.6
		S62.2,109.9,62.1,109.4z"/>
	<path class="st6" d="M82.5,106.6c-0.8-0.8-1.8-1.3-2.9-1.6v6.1c0,0.9-0.7,1.6-1.6,1.6s-1.6-0.7-1.6-1.6v-6.1
		c-1.1,0.3-2.1,0.8-2.9,1.6c-2.5,2.5-2.5,6.4,0,8.9c2.5,2.5,6.4,2.5,8.9,0C84.9,113,84.9,109,82.5,106.6z"/>
	<path class="st5" d="M78,112.6c0.9,0,1.6-0.7,1.6-1.6v-6.1c-1-0.3-2.1-0.3-3.1,0v6.1C76.4,111.9,77.1,112.6,78,112.6z"/>
	<rect x="41.9" y="122" class="st7" width="9.4" height="6.3"/>
	<rect x="117.3" y="122" class="st7" width="9.4" height="6.3"/>
	<path class="st8" d="M57.6,50.4c0.9-2,2.9-3.8,5.2-3.8c3.2,0,5.5,2.6,5.8,5.7c0,0,0.2,0.8-0.2,2.1c-0.5,1.9-1.6,3.5-3,4.8l-7.6,6.5
		c-0.1,0.1-0.2,0.1-0.2,0l-7.6-6.5c-1.5-1.3-2.6-2.9-3-4.8c-0.3-1.4-0.2-2.1-0.2-2.1c0.3-3.1,2.6-5.7,5.8-5.7
		C54.7,46.6,56.7,48.4,57.6,50.4z"/>
	<path class="st9" d="M122,49.7h-6.3c-0.9,0-1.6-0.7-1.6-1.6c0-0.9,0.7-1.6,1.6-1.6h6.3c0.9,0,1.6,0.7,1.6,1.6
		C123.6,49,122.9,49.7,122,49.7z"/>
	<path class="st9" d="M123.6,56H111c-0.9,0-1.6-0.7-1.6-1.6c0-0.9,0.7-1.6,1.6-1.6h12.6c0.9,0,1.6,0.7,1.6,1.6
		C125.1,55.3,124.4,56,123.6,56z"/>
	<path class="st9" d="M122,62.3h-6.3c-0.9,0-1.6-0.7-1.6-1.6s0.7-1.6,1.6-1.6h6.3c0.9,0,1.6,0.7,1.6,1.6S122.9,62.3,122,62.3z"/>
</g>
<circle class="st0" cx="84.3" cy="84.6" r="77.3"/>
<g>
	<rect x="38.7" y="100.3" class="st1" width="91.1" height="22"/>
	<rect x="38.7" y="40.6" class="st2" width="91.1" height="59.7"/>
	<path class="st3" d="M126.7,43.7v53.4H41.9V43.7H126.7 M129.9,40.6H38.7v59.7h91.1V40.6L129.9,40.6z"/>
	<path class="st4" d="M78,95.6C78,95.6,77.9,95.6,78,95.6c-0.7,0-1.2-0.4-1.5-1l-8.1-20.1l-6.3,13.9c-0.3,0.6-0.8,0.9-1.4,0.9H48.2
		c-0.9,0-1.6-0.7-1.6-1.6c0-0.9,0.7-1.6,1.6-1.6h11.6l7.4-16.4c0.3-0.6,0.8-0.9,1.5-0.9c0.6,0,1.2,0.4,1.4,1l8.2,20.5l6.3-11.3
		c0.3-0.5,0.8-0.8,1.3-0.8c0.5,0,1.1,0.3,1.4,0.8l2.7,4.5l5.5-26c0.2-0.7,0.8-1.2,1.5-1.2c0,0,0,0,0,0c0.8,0,1.4,0.6,1.5,1.3
		l4.5,28.5h17.5c0.9,0,1.6,0.7,1.6,1.6c0,0.9-0.7,1.6-1.6,1.6h-18.9c-0.8,0-1.4-0.6-1.6-1.3l-3.4-21.4l-4.5,21.6
		c-0.1,0.6-0.6,1.1-1.3,1.2c-0.6,0.1-1.3-0.2-1.6-0.7L85.9,83l-6.5,11.8C79.1,95.3,78.6,95.6,78,95.6z"/>
	<rect x="95.3" y="105" class="st2" width="22" height="12.6"/>
	<rect x="95.3" y="105" class="st5" width="7.9" height="12.6"/>
	<path class="st6" d="M54.4,111.3c0-0.9,0.7-1.6,1.6-1.6h6.1c-0.7-2.7-3.1-4.7-6.1-4.7c-3.5,0-6.3,2.8-6.3,6.3
		c0,3.5,2.8,6.3,6.3,6.3c2.9,0,5.4-2,6.1-4.7H56C55.2,112.8,54.4,112.1,54.4,111.3z"/>
	<path class="st5" d="M62.1,109.7H56c-0.9,0-1.6,0.7-1.6,1.6c0,0.9,0.7,1.6,1.6,1.6h6.1c0.1-0.5,0.2-1,0.2-1.6
		C62.3,110.7,62.2,110.2,62.1,109.7z"/>
	<path class="st6" d="M82.5,106.8c-0.8-0.8-1.8-1.3-2.9-1.6v6.1c0,0.9-0.7,1.6-1.6,1.6s-1.6-0.7-1.6-1.6v-6.1
		c-1.1,0.3-2.1,0.8-2.9,1.6c-2.5,2.5-2.5,6.4,0,8.9c2.5,2.5,6.4,2.5,8.9,0C84.9,113.3,84.9,109.3,82.5,106.8z"/>
	<path class="st5" d="M78,112.8c0.9,0,1.6-0.7,1.6-1.6v-6.1c-1-0.3-2.1-0.3-3.1,0v6.1C76.4,112.1,77.1,112.8,78,112.8z"/>
	<rect x="41.9" y="122.3" class="st7" width="9.4" height="6.3"/>
	<rect x="117.3" y="122.3" class="st7" width="9.4" height="6.3"/>
	<path class="st8" d="M57.6,50.7c0.9-2,2.9-3.8,5.2-3.8c3.2,0,5.5,2.6,5.8,5.7c0,0,0.2,0.8-0.2,2.1c-0.5,1.9-1.6,3.5-3,4.8L57.7,66
		c-0.1,0.1-0.2,0.1-0.2,0l-7.6-6.5c-1.5-1.3-2.6-2.9-3-4.8c-0.3-1.4-0.2-2.1-0.2-2.1c0.3-3.1,2.6-5.7,5.8-5.7
		C54.7,46.9,56.7,48.7,57.6,50.7z"/>
	<path class="st9" d="M122,50h-6.3c-0.9,0-1.6-0.7-1.6-1.6c0-0.9,0.7-1.6,1.6-1.6h6.3c0.9,0,1.6,0.7,1.6,1.6
		C123.6,49.3,122.9,50,122,50z"/>
	<path class="st9" d="M123.6,56.3H111c-0.9,0-1.6-0.7-1.6-1.6s0.7-1.6,1.6-1.6h12.6c0.9,0,1.6,0.7,1.6,1.6S124.4,56.3,123.6,56.3z"
		/>
	<path class="st9" d="M122,62.6h-6.3c-0.9,0-1.6-0.7-1.6-1.6c0-0.9,0.7-1.6,1.6-1.6h6.3c0.9,0,1.6,0.7,1.6,1.6
		C123.6,61.9,122.9,62.6,122,62.6z"/>
</g>
</svg>
