<?xml version="1.0" encoding="utf-8"?>
<!-- Generator: Adobe Illustrator 21.0.1, SVG Export Plug-In . SVG Version: 6.00 Build 0)  -->
<svg version="1.1" xmlns="http://www.w3.org/2000/svg" xmlns:xlink="http://www.w3.org/1999/xlink" x="0px" y="0px"
	 viewBox="0 0 858.8 219.3" style="enable-background:new 0 0 858.8 219.3;" xml:space="preserve">
<style type="text/css">
	.st0{fill:#FFFFFF;}
	.st1{fill:#E8E8E8;}
</style>
<g id="text_1_">
	<g id="text">
		<g>
			<g>
				<path class="st0" d="M330.4,66.5c15.8,0.1,28,4.5,36.8,13.3c9.4,9.5,14.1,20.8,14.1,33.9c0,13.3-4.8,24.7-14.3,34.3
					c-8.6,8.6-20.8,12.9-36.5,13h-20V66.5H330.4z M322.3,77v73.6h8c11.7,0,21-3.2,27.7-9.7c7.4-7.4,11.1-16.4,11.1-27.1
					c0-10.6-3.7-19.6-11.1-27.1c-6.7-6.4-15.9-9.6-27.7-9.6h-8V77z"/>
				<path class="st0" d="M466.9,161H455v-10.5c-4.7,8.1-11.8,12.1-21.4,12.1c-9.5,0-17.5-3.3-24.1-9.9c-6.6-6.6-9.9-14.4-9.9-23.3
					c0-9.1,3.3-16.9,9.9-23.4c6.6-6.6,14.6-9.9,24.1-9.9c9.6,0,16.7,4,21.4,12v-7h11.9V161z M455,134.1v-9.6
					c-0.8-4.3-2.8-8.1-6-11.2c-4.4-4.5-9.6-6.7-15.4-6.7c-5.9,0-11,2.2-15.4,6.6c-4.3,4.4-6.5,9.8-6.5,16.2s2.2,11.8,6.5,16.1
					s9.5,6.5,15.4,6.5s11-2.2,15.4-6.6C452.2,142.2,454.2,138.4,455,134.1z"/>
				<path class="st0" d="M495.5,101V77.7h11.8V101h11.2v10.2h-11.2V161h-11.8v-49.8h-11.2V101C484.3,101,495.5,101,495.5,101z"/>
				<path class="st0" d="M602.1,161h-11.9v-10.5c-4.7,8.1-11.8,12.1-21.4,12.1c-9.5,0-17.5-3.3-24.1-9.9c-6.6-6.6-9.9-14.4-9.9-23.3
					c0-9.1,3.3-16.9,9.9-23.4c6.6-6.6,14.6-9.9,24.1-9.9c9.6,0,16.7,4,21.4,12v-7h11.9V161z M590.3,134.1v-9.6
					c-0.8-4.3-2.8-8.1-6-11.2c-4.4-4.5-9.6-6.7-15.4-6.7c-5.9,0-11,2.2-15.4,6.6c-4.3,4.4-6.5,9.8-6.5,16.2s2.2,11.8,6.5,16.1
					s9.5,6.5,15.4,6.5s11-2.2,15.4-6.6C587.4,142.2,589.4,138.4,590.3,134.1z"/>
				<path class="st0" d="M636.3,111.2V161h-11.9v-49.8h-5.5V101h5.5V88.7c0.3-4.7,2.1-8.8,5.5-12.2c3.8-3.5,8.2-5.3,13.2-5.3
					c3.9,0,7.4,0.8,10.6,2.4l-3.5,9.9c-2.7-1.5-4.9-2.3-6.7-2.3c-1.6,0-3.2,0.7-4.8,2.2c-1.5,1.6-2.4,3.5-2.5,5.8V101h11.2v10.2
					H636.3z"/>
				<path class="st0" d="M677.5,66.5V161h-11.9V66.5H677.5z"/>
				<path class="st0" d="M732.9,96.1c9.6,0,17.6,3.3,24.2,9.9c6.5,6.6,9.8,14.4,9.8,23.4s-3.3,16.8-9.8,23.3
					c-6.5,6.6-14.6,9.9-24.2,9.9c-9.5,0-17.5-3.3-24.1-9.9c-6.6-6.6-9.9-14.4-9.9-23.3c0-9.1,3.3-16.9,9.9-23.4
					C715.3,99.4,723.4,96.1,732.9,96.1z M717.5,113.2c-4.3,4.4-6.5,9.8-6.5,16.2c0,6.4,2.2,11.8,6.5,16.1s9.5,6.5,15.4,6.5
					s11-2.2,15.3-6.5c4.4-4.3,6.5-9.7,6.5-16.1c0-6.4-2.2-11.8-6.5-16.2c-4.4-4.4-9.5-6.6-15.3-6.6
					C726.9,106.6,721.8,108.8,717.5,113.2z"/>
				<path class="st0" d="M858.8,101l-20.4,60H830l-10.2-28.4L809.7,161h-8.5l-20.3-60h12.8l12,37.3l10.1-28h8l10,28l12-37.3
					C845.8,101,858.8,101,858.8,101z"/>
			</g>
		</g>
		<g>
			<g>
				<path class="st0" d="M426.8,191.9v27h-1.5v-27H426.8z"/>
				<path class="st0" d="M444.5,191.9l18,25.2v-25.2h1.5v27h-2.4L444,194.3v24.6h-1.5v-27H444.5z"/>
				<path class="st0" d="M486.4,193.4v25.5h-1.5v-25.5h-6.8v-1.5h15.2v1.5H486.4z"/>
				<path class="st0" d="M520.9,191.9v1.5h-12v11.2h12v1.5h-12v11.3h12v1.5h-13.5v-27H520.9z"/>
				<path class="st0" d="M543.1,209.6H538v9.4h-1.5v-27h7.1c2.1,0.3,3.8,1.1,5.3,2.6c1.7,1.7,2.6,3.8,2.6,6.2s-0.9,4.5-2.6,6.3
					c-1.2,1.2-2.6,2-4.1,2.4l6.2,9.6h-1.9L543.1,209.6z M538.1,193.4V208h4.6c2,0,3.7-0.7,5.1-2.1c1.4-1.4,2.1-3.1,2.1-5.2
					c0-2-0.7-3.7-2.1-5.1c-1.4-1.4-3.1-2.1-5.1-2.1L538.1,193.4L538.1,193.4z"/>
				<path class="st0" d="M568.1,191.9l18,25.2v-25.2h1.5v27h-2.4l-17.6-24.6v24.6h-1.5v-27H568.1z"/>
				<path class="st0" d="M612.6,191.9l9.8,27h-1.6l-4.3-11.9h-9.4l-4.4,11.9h-1.6l9.9-27H612.6z M615.9,205.5l-4.1-11.3l-4.1,11.3
					H615.9z"/>
				<path class="st0" d="M641.4,193.4v25.5h-1.5v-25.5H633v-1.5h15.2v1.5H641.4z"/>
				<path class="st0" d="M664.1,191.9v27h-1.5v-27H664.1z"/>
				<path class="st0" d="M702.6,195.6c2.7,2.7,4.1,6,4.1,9.8s-1.4,7.1-4.1,9.8s-6,4.1-9.8,4.1s-7.1-1.4-9.8-4.1s-4.1-6-4.1-9.8
					s1.4-7.1,4.1-9.8s6-4.1,9.8-4.1C696.7,191.5,699.9,192.9,702.6,195.6z M692.8,193.1c-3.4,0-6.3,1.2-8.7,3.6
					c-2.4,2.4-3.6,5.3-3.6,8.7s1.2,6.3,3.6,8.7c2.4,2.4,5.3,3.6,8.7,3.6s6.3-1.2,8.7-3.6s3.6-5.3,3.6-8.7s-1.2-6.3-3.6-8.7
					C699.1,194.3,696.2,193.1,692.8,193.1z"/>
				<path class="st0" d="M723.3,191.9l18,25.2v-25.2h1.5v27h-2.4l-17.6-24.6v24.6h-1.5v-27H723.3z"/>
				<path class="st0" d="M767.7,191.9l9.8,27h-1.6l-4.3-11.9h-9.4l-4.4,11.9h-1.6l9.9-27H767.7z M771,205.5l-4.1-11.3l-4.1,11.3H771
					z"/>
				<path class="st0" d="M791.1,218.9v-27h1.5v25.5h10.3v1.5H791.1z"/>
			</g>
		</g>
	</g>
</g>
<g id="icon_1_">
	<g id="icon">
		<g>
			<g>
				<polygon class="st0" points="52.6,8 52.6,8 29.4,8 29.4,31.2 29.4,31.2 				"/>
				<polygon class="st0" points="29.4,31.2 52.6,31.2 52.6,8 				"/>
			</g>
		</g>
		<g>
			<g>
				<polygon class="st0" points="86.5,12 86.5,12 63,12 63,35.5 				"/>
				<polygon class="st0" points="86.5,12 63,35.5 86.5,35.5 				"/>
			</g>
		</g>
		<polygon class="st1" points="122,12 122,12 92.6,12 92.6,41.5 		"/>
		<polygon class="st0" points="122,12 92.6,41.5 122,41.5 		"/>
		<path class="st1" d="M150.7,12.9c-1.3-0.2-2.6-0.3-3.9-0.5v-0.5h-24.7v29.5L150.7,12.9z"/>
		<path class="st0" d="M122.1,41.5h29.6V13c-0.3,0-0.7-0.1-1-0.1L122.1,41.5L122.1,41.5z"/>
		<g>
			<g>
				<polygon class="st0" points="23.3,35.3 0,35.3 0,58.5 0,58.5 				"/>
				<polygon class="st0" points="0,58.5 23.3,58.5 23.3,35.3 				"/>
			</g>
		</g>
		<polygon class="st1" points="92.6,71 122,41.6 122,41.6 92.6,41.6 		"/>
		<g>
			<polygon class="st0" points="122,41.6 92.6,71 122,71 			"/>
		</g>
		<polygon class="st1" points="151.6,41.6 122.1,41.6 122.1,71 		"/>
		<polygon class="st0" points="151.7,71 151.7,41.6 151.6,41.6 122.1,71 		"/>
		<polygon class="st1" points="63,71.2 63,100.6 92.5,71.2 		"/>
		<polygon class="st0" points="92.5,71.2 92.5,71.2 63,100.6 92.5,100.6 		"/>
		<polygon class="st1" points="92.6,71.2 92.6,100.6 122,71.2 		"/>
		<polygon class="st0" points="122,71.2 92.6,100.6 122,100.6 		"/>
		<polygon class="st1" points="122.1,100.6 151.6,71.2 122.1,71.2 		"/>
		<polygon class="st0" points="122.1,100.6 122.1,100.6 151.7,100.6 151.7,71.2 151.6,71.2 		"/>
		<polygon class="st1" points="62.9,100.7 33.4,100.7 33.4,130.2 33.4,130.2 		"/>
		<polygon class="st0" points="33.4,130.2 62.9,130.2 62.9,100.7 		"/>
		<polygon class="st1" points="92.5,100.7 63,100.7 63,130.2 63,130.2 		"/>
		<polygon class="st0" points="63,130.2 92.5,130.2 92.5,100.7 		"/>
		<polygon class="st1" points="122,100.7 122,100.7 92.6,100.7 92.6,130.2 92.6,130.2 		"/>
		<polygon class="st0" points="92.6,130.2 122,130.2 122,100.7 		"/>
		<polygon class="st1" points="151.6,100.7 122.1,100.7 122.1,130.2 		"/>
		<polygon class="st0" points="122.1,130.2 151.7,130.2 151.7,100.7 151.6,100.7 		"/>
		<polygon class="st1" points="62.9,130.3 33.4,130.3 33.4,159.7 33.4,159.7 		"/>
		<polygon class="st0" points="62.9,130.3 33.4,159.7 62.9,159.7 		"/>
		<polygon class="st1" points="63,130.3 63,159.7 92.5,130.3 		"/>
		<polygon class="st0" points="92.5,130.3 92.5,130.3 63,159.7 92.5,159.7 		"/>
		<polygon class="st1" points="92.6,130.3 92.6,159.7 122,130.3 		"/>
		<polygon class="st0" points="92.6,159.7 122,159.7 122,130.3 		"/>
		<polygon class="st1" points="151.6,130.3 122.1,130.3 122.1,159.7 		"/>
		<polygon class="st0" points="122.1,159.7 122.1,159.7 151.7,159.7 151.7,130.3 151.6,130.3 		"/>
		<polygon class="st1" points="62.9,159.8 33.4,159.8 33.4,189.3 33.4,189.3 		"/>
		<polygon class="st0" points="33.4,189.3 62.9,189.3 62.9,159.8 		"/>
		<polygon class="st1" points="63,159.8 63,189.3 63,189.3 92.5,159.8 		"/>
		<polygon class="st0" points="63,189.3 92.5,189.3 92.5,159.8 		"/>
		<polygon class="st1" points="122,159.8 92.6,159.8 92.6,189.3 92.6,189.3 		"/>
		<polygon class="st0" points="92.6,189.3 122,189.3 122,159.8 		"/>
		<polygon class="st1" points="122.1,159.8 122.1,189.3 151.6,159.8 		"/>
		<polygon class="st0" points="151.6,159.8 122.1,189.3 151.7,189.3 151.7,159.8 		"/>
		<polygon class="st1" points="151.8,71 181.2,41.6 151.7,41.6 151.7,71 		"/>
		<polygon class="st0" points="151.8,71 181.3,71 181.3,41.6 181.2,41.6 		"/>
		<path class="st1" d="M151.8,41.5l22.6-22.6c-7.2-2.8-14.8-4.8-22.7-5.9L151.8,41.5L151.8,41.5z"/>
		<path class="st0" d="M181.3,41.5V21.9c-2.3-1.1-4.6-2.1-7-3l-22.6,22.6H181.3z"/>
		<polygon class="st1" points="151.8,100.6 181.2,71.2 151.7,71.2 151.7,100.6 		"/>
		<polygon class="st0" points="151.8,100.6 181.3,100.6 181.3,71.2 181.2,71.2 		"/>
		<polygon class="st1" points="151.7,130.2 151.8,130.2 181.2,100.7 151.7,100.7 		"/>
		<polygon class="st0" points="151.8,130.2 181.3,130.2 181.3,100.7 181.2,100.7 		"/>
		<polygon class="st1" points="151.7,159.7 151.8,159.7 181.2,130.3 151.7,130.3 		"/>
		<polygon class="st0" points="151.8,159.7 181.3,159.7 181.3,130.3 181.2,130.3 		"/>
		<polygon class="st1" points="181.4,100.6 210.9,71.2 181.3,71.2 181.3,100.6 		"/>
		<polygon class="st0" points="181.4,100.6 211,100.6 211,71.2 210.9,71.2 		"/>
		<path class="st1" d="M181.3,71h0.1l28.8-28.8c-0.2-0.2-0.5-0.4-0.7-0.7h-28.2L181.3,71L181.3,71z"/>
		<path class="st0" d="M181.4,71H211V43c-0.3-0.3-0.5-0.5-0.8-0.8L181.4,71z"/>
		<path class="st1" d="M181.4,41.5L193.9,29c-4-2.6-8.2-5-12.6-7.1v19.6H181.4z"/>
		<path class="st0" d="M209.4,41.5c-4.7-4.6-9.9-8.8-15.5-12.5l-12.5,12.5H209.4z"/>
		<path class="st1" d="M211,71h0.1l12.4-12.4c-3.7-5.6-7.9-10.8-12.5-15.5V71z"/>
		<path class="st0" d="M230.6,71c-2.1-4.3-4.4-8.5-7-12.4L211.2,71H230.6z"/>
		<polygon class="st1" points="181.4,130.2 210.9,100.7 181.3,100.7 181.3,130.2 		"/>
		<polygon class="st0" points="181.4,130.2 211,130.2 211,100.7 210.9,100.7 		"/>
		<path class="st1" d="M211,100.6h0.1l22.5-22.5c-0.9-2.4-1.9-4.7-3-7H211V100.6z"/>
		<path class="st0" d="M239.5,100.6c-1.1-7.8-3.1-15.3-5.9-22.5l-22.5,22.5H239.5z"/>
		<path class="st1" d="M211,130.2h0.1l28.5-28.5c0-0.3-0.1-0.6-0.1-0.9H211V130.2z"/>
		<path class="st0" d="M239.5,130.2c0.7-4.8,1.1-9.7,1.1-14.7c0-4.7-0.3-9.3-0.9-13.8l-28.5,28.5H239.5z"/>
		<path class="st1" d="M211,159.7h0.1l28.2-28.2c0.1-0.4,0.1-0.8,0.2-1.2H211V159.7z"/>
		<path class="st0" d="M230.6,159.7c4.2-8.8,7.1-18.3,8.7-28.2l-28.2,28.2H230.6z"/>
		<polygon class="st1" points="181.4,159.7 210.9,130.3 181.3,130.3 181.3,159.7 		"/>
		<polygon class="st0" points="181.4,159.7 211,159.7 211,130.3 210.9,130.3 		"/>
		<polygon class="st1" points="181.3,189.3 181.4,189.3 210.9,159.8 181.3,159.8 		"/>
		<path class="st0" d="M210.9,159.8l-29.5,29.5h28.1c0.5-0.5,1-1,1.5-1.5v-28H210.9z"/>
		<path class="st1" d="M211,187.8c8-8.1,14.6-17.6,19.6-28H211V187.8z"/>
		<polygon class="st1" points="151.7,159.8 151.7,189.3 151.7,189.3 151.7,189.3 181.2,159.8 		"/>
		<polygon class="st0" points="151.7,189.3 181.3,189.3 181.3,159.8 181.2,159.8 		"/>
		<path class="st1" d="M151.7,189.4v28.5c0.4-0.1,0.9-0.1,1.3-0.2l28.3-28.3H151.7z"/>
		<path class="st0" d="M181.3,189.4L153,217.7c10-1.5,19.5-4.5,28.3-8.7V189.4L181.3,189.4z"/>
		<path class="st1" d="M181.3,209c10.4-4.9,19.9-11.6,28.1-19.6h-28.1V209z"/>
		<polygon class="st1" points="33.4,189.4 33.4,218.4 33.9,218.4 62.9,189.4 		"/>
		<polygon class="st0" points="62.9,189.4 33.9,218.4 62.9,218.4 		"/>
		<polygon class="st1" points="63,189.4 63,218.4 63.4,218.4 92.5,189.4 		"/>
		<polygon class="st0" points="92.5,189.4 63.4,218.4 92.5,218.4 		"/>
		<polygon class="st1" points="92.6,189.4 92.6,218.4 93,218.4 122,189.4 		"/>
		<polygon class="st0" points="93,218.4 122,218.4 122,189.4 		"/>
		<polygon class="st1" points="122.1,189.4 122.1,218.4 122.5,218.4 151.6,189.4 		"/>
		<path class="st0" d="M151.6,189.4l-29,29h14.6v0.5c4.9,0,9.8-0.4,14.6-1v-28.5H151.6z"/>
		<g>
			<g>
				<polygon class="st0" points="18.6,0 18.6,0 0,0 0,18.6 0,18.6 				"/>
				<polygon class="st0" points="0,18.6 18.6,18.6 18.6,0 				"/>
			</g>
		</g>
		<g>
			<g>
				<polygon class="st0" points="27.3,62.9 27.3,62.9 11.7,62.9 11.7,78.6 11.7,78.6 				"/>
				<polygon class="st0" points="11.7,78.6 27.3,78.6 27.3,62.9 				"/>
			</g>
		</g>
		<g>
			<g>
				<polygon class="st0" points="56.7,41.6 33.4,41.6 33.4,64.8 33.4,64.8 				"/>
				<polygon class="st0" points="33.4,64.8 56.7,64.8 56.7,41.6 				"/>
			</g>
		</g>
		<polygon class="st1" points="62.9,71.2 33.4,71.2 33.4,100.6 33.4,100.6 		"/>
		<polygon class="st0" points="62.9,71.2 33.4,100.6 62.9,100.6 		"/>
		<polygon class="st1" points="92.5,41.6 63,41.6 63,71 63,71 		"/>
		<polygon class="st0" points="92.5,71 92.5,41.6 63,71 		"/>
	</g>
</g>
</svg>
